<?xml version="1.0"?>
<svg xmlns="http://www.w3.org/2000/svg" xmlns:xlink="http://www.w3.org/1999/xlink" version="1.1" id="Layer_1" x="0px" y="0px" viewBox="0 0 512 512" style="enable-background:new 0 0 512 512;" xml:space="preserve" width="512px" height="512px" class=""><g><g>
	<g>
		<path d="M419.321,401.618c-52.869,21.246-107.819,32.018-163.322,32.016c-55.496-0.001-110.446-10.773-163.321-32.017    l-5.843,14.544c54.741,21.993,111.657,33.145,169.165,33.146c0.003,0,0.006,0,0.009,0c57.511,0,114.424-11.152,169.155-33.146    L419.321,401.618z" data-original="#000000" class="active-path" data-old_color="#000000" fill="#FFFFFF"/>
	</g>
</g><g>
	<g>
		<path d="M316.082,290.778c-30.249,0-54.857,24.608-54.857,54.857c0,30.249,24.608,54.857,54.857,54.857    c30.249,0,54.857-24.608,54.857-54.857C370.939,315.388,346.33,290.778,316.082,290.778z M316.082,384.819    c-21.606,0-39.184-17.577-39.184-39.184c0-21.605,17.577-39.184,39.184-39.184c21.606,0,39.184,17.577,39.184,39.184    C355.265,367.242,337.688,384.819,316.082,384.819z" data-original="#000000" class="active-path" data-old_color="#000000" fill="#FFFFFF"/>
	</g>
</g><g>
	<g>
		<path d="M229.878,163.752c-25.927,0-47.02,21.093-47.02,47.02s21.093,47.02,47.02,47.02s47.02-21.093,47.02-47.02    S255.805,163.752,229.878,163.752z M229.878,242.12c-17.285,0-31.347-14.062-31.347-31.347s14.062-31.347,31.347-31.347    c17.285,0,31.347,14.062,31.347,31.347S247.162,242.12,229.878,242.12z" data-original="#000000" class="active-path" data-old_color="#000000" fill="#FFFFFF"/>
	</g>
</g><g>
	<g>
		<path d="M207.935,315.559c-14.404,0-26.122,11.719-26.122,26.122s11.719,26.122,26.122,26.122s26.122-11.719,26.122-26.122    S222.339,315.559,207.935,315.559z M207.935,352.131c-5.762,0-10.449-4.687-10.449-10.449s4.687-10.449,10.449-10.449    s10.449,4.687,10.449,10.449S213.696,352.131,207.935,352.131z" data-original="#000000" class="active-path" data-old_color="#000000" fill="#FFFFFF"/>
	</g>
</g><g>
	<g>
		<path d="M318.171,215.997c-14.404,0-26.122,11.719-26.122,26.122c0,14.404,11.719,26.122,26.122,26.122    s26.122-11.719,26.122-26.122C344.294,227.716,332.575,215.997,318.171,215.997z M318.171,252.569    c-5.762,0-10.449-4.687-10.449-10.449c0-5.762,4.687-10.449,10.449-10.449c5.762,0,10.449,4.687,10.449,10.449    C328.62,247.881,323.933,252.569,318.171,252.569z" data-original="#000000" class="active-path" data-old_color="#000000" fill="#FFFFFF"/>
	</g>
</g><g>
	<g>
		<path d="M333.879,147.393l-7.089,3.177c-4.048,1.814-8.354,2.733-12.799,2.733c-17.285,0-31.347-14.062-31.347-31.347    c0-12.08,7.07-23.217,18.01-28.371l7.019-3.306L266.251,0H245.75L124.395,264.489l7.543,3.102    c14.759,6.07,24.295,20.298,24.295,36.247c0,21.606-17.577,39.184-39.184,39.184c-6.238,0-12.213-1.433-17.757-4.258l-7.276-3.708    L36.789,455.427l6.613,3.442C111.122,494.125,182.65,512,256,512s144.878-17.875,212.598-53.131l6.613-3.443L333.879,147.393z     M256,496.327c-68.416,0-135.236-16.135-198.724-47.968l42.426-92.466c5.561,1.863,11.368,2.805,17.347,2.805    c30.249,0,54.857-24.608,54.857-54.857c0-19.577-10.26-37.301-26.712-47.098L255.803,15.673h0.396l31.031,67.632    c-12.506,8.697-20.257,23.155-20.257,38.651c0,25.927,21.093,47.02,47.02,47.02c4.04,0,8.004-0.507,11.852-1.511l128.88,280.893    C391.236,480.191,324.416,496.327,256,496.327z" data-original="#000000" class="active-path" data-old_color="#000000" fill="#FFFFFF"/>
	</g>
</g></g> </svg>
