<?xml version="1.0"?>
<svg xmlns="http://www.w3.org/2000/svg" height="512px" viewBox="-1 0 512 512" width="512px" class=""><g><path d="m270.449219 400.128906c0-20.527344-16.703125-37.230468-37.230469-37.230468-20.53125 0-37.230469 16.703124-37.230469 37.230468s16.703125 37.226563 37.230469 37.226563 37.230469-16.699219 37.230469-37.226563zm-59.460938 0c0-12.257812 9.972657-22.230468 22.230469-22.230468s22.230469 9.972656 22.230469 22.230468c0 12.257813-9.972657 22.226563-22.230469 22.226563s-22.230469-9.96875-22.230469-22.226563zm0 0" data-original="#000000" class="active-path" data-old_color="#000000" fill="#FFFFFF"/><path d="m140.527344 315.757812c-20.527344 0-37.226563 16.699219-37.226563 37.226563s16.699219 37.230469 37.226563 37.230469c20.53125 0 37.230468-16.703125 37.230468-37.230469s-16.699218-37.226563-37.230468-37.226563zm0 59.457032c-12.253906 0-22.226563-9.972656-22.226563-22.230469s9.972657-22.226563 22.226563-22.226563c12.257812 0 22.230468 9.96875 22.230468 22.226563s-9.972656 22.230469-22.230468 22.230469zm0 0" data-original="#000000" class="active-path" data-old_color="#000000" fill="#FFFFFF"/><path d="m164.992188 162.625c-20.53125 0-37.230469 16.703125-37.230469 37.230469 0 20.527343 16.699219 37.230469 37.230469 37.230469 20.527343 0 37.226562-16.703126 37.226562-37.230469 0-20.527344-16.699219-37.230469-37.226562-37.230469zm0 59.460938c-12.257813 0-22.230469-9.972657-22.230469-22.230469 0-12.257813 9.972656-22.230469 22.230469-22.230469 12.253906 0 22.226562 9.972656 22.226562 22.230469 0 12.257812-9.96875 22.230469-22.226562 22.230469zm0 0" data-original="#000000" class="active-path" data-old_color="#000000" fill="#FFFFFF"/><path d="m264.640625 99.117188c0-20.527344-16.703125-37.230469-37.230469-37.230469s-37.226562 16.703125-37.226562 37.230469c0 20.527343 16.699218 37.230468 37.226562 37.230468s37.230469-16.703125 37.230469-37.230468zm-59.460937 0c0-12.257813 9.972656-22.230469 22.230468-22.230469 12.257813 0 22.230469 9.972656 22.230469 22.230469 0 12.257812-9.972656 22.230468-22.230469 22.230468-12.257812 0-22.230468-9.972656-22.230468-22.230468zm0 0" data-original="#000000" class="active-path" data-old_color="#000000" fill="#FFFFFF"/><path d="m395.230469 135.914062c0-12.332031-10.03125-22.363281-22.363281-22.363281-12.332032 0-22.367188 10.03125-22.367188 22.363281 0 12.332032 10.035156 22.363282 22.367188 22.363282 12.332031 0 22.363281-10.03125 22.363281-22.363282zm-29.730469 0c0-4.0625 3.304688-7.363281 7.367188-7.363281s7.363281 3.300781 7.363281 7.363281-3.300781 7.363282-7.363281 7.363282-7.367188-3.300782-7.367188-7.363282zm0 0" data-original="#000000" class="active-path" data-old_color="#000000" fill="#FFFFFF"/><path d="m325.027344 190.75c-12.332032 0-22.363282 10.03125-22.363282 22.363281s10.03125 22.367188 22.363282 22.367188c12.332031 0 22.367187-10.035157 22.367187-22.367188s-10.035156-22.363281-22.367187-22.363281zm0 29.730469c-4.058594 0-7.363282-3.304688-7.363282-7.367188 0-4.058593 3.304688-7.363281 7.363282-7.363281 4.0625 0 7.367187 3.304688 7.367187 7.363281 0 4.0625-3.304687 7.367188-7.367187 7.367188zm0 0" data-original="#000000" class="active-path" data-old_color="#000000" fill="#FFFFFF"/><path d="m307.589844 113.683594c12.332031 0 22.363281-10.03125 22.363281-22.363282 0-12.332031-10.03125-22.367187-22.363281-22.367187-12.332032 0-22.363282 10.035156-22.363282 22.367187 0 12.332032 10.03125 22.363282 22.363282 22.363282zm0-29.730469c4.058594 0 7.363281 3.304687 7.363281 7.367187s-3.304687 7.363282-7.363281 7.363282c-4.0625 0-7.363282-3.304688-7.363282-7.363282 0-4.0625 3.300782-7.367187 7.363282-7.367187zm0 0" data-original="#000000" class="active-path" data-old_color="#000000" fill="#FFFFFF"/><path d="m233.164062 173.5625c0 12.332031 10.035157 22.367188 22.367188 22.367188s22.363281-10.035157 22.363281-22.367188-10.03125-22.363281-22.363281-22.363281c-12.335938 0-22.367188 10.03125-22.367188 22.363281zm29.730469 0c0 4.0625-3.304687 7.367188-7.367187 7.367188-4.058594 0-7.363282-3.304688-7.363282-7.367188 0-4.058594 3.304688-7.363281 7.363282-7.363281 4.0625 0 7.367187 3.304687 7.367187 7.363281zm0 0" data-original="#000000" class="active-path" data-old_color="#000000" fill="#FFFFFF"/><path d="m88.960938 196.75c-12.332032 0-22.363282 10.03125-22.363282 22.363281s10.03125 22.367188 22.363282 22.367188c12.332031 0 22.363281-10.035157 22.363281-22.367188s-10.03125-22.363281-22.363281-22.363281zm0 29.730469c-4.0625 0-7.363282-3.304688-7.363282-7.367188 0-4.058593 3.300782-7.363281 7.363282-7.363281 4.058593 0 7.363281 3.304688 7.363281 7.363281 0 4.0625-3.304688 7.367188-7.363281 7.367188zm0 0" data-original="#000000" class="active-path" data-old_color="#000000" fill="#FFFFFF"/><path d="m174.332031 311.992188c12.332031 0 22.363281-10.03125 22.363281-22.363282 0-12.332031-10.035156-22.367187-22.363281-22.367187-12.332031 0-22.367187 10.035156-22.367187 22.367187 0 12.332032 10.035156 22.363282 22.367187 22.363282zm0-29.730469c4.058594 0 7.363281 3.304687 7.363281 7.367187 0 4.058594-3.304687 7.363282-7.363281 7.363282-4.0625 0-7.367187-3.304688-7.367187-7.363282 0-4.0625 3.304687-7.367187 7.367187-7.367187zm0 0" data-original="#000000" class="active-path" data-old_color="#000000" fill="#FFFFFF"/><path d="m140.5 151.222656c2.105469 0 4.226562-.300781 6.304688-.910156 11.835937-3.460938 18.652343-15.902344 15.191406-27.742188-1.675782-5.730468-5.484375-10.472656-10.722656-13.339843-5.242188-2.871094-11.285157-3.527344-17.019532-1.851563-11.835937 3.460938-18.652344 15.902344-15.191406 27.738282 1.675781 5.734374 5.484375 10.476562 10.722656 13.34375 3.339844 1.828124 7.007813 2.761718 10.714844 2.761718zm-2.035156-29.445312c.683594-.199219 1.382812-.300782 2.074218-.300782 1.222657 0 2.429688.308594 3.527344.910157 1.726563.945312 2.980469 2.503906 3.53125 4.394531 1.140625 3.898438-1.105468 7.996094-5 9.132812-1.890625.550782-3.878906.335938-5.605468-.609374-1.722657-.945313-2.976563-2.503907-3.53125-4.394532-1.140626-3.894531 1.105468-7.992187 5.003906-9.132812zm0 0" data-original="#000000" class="active-path" data-old_color="#000000" fill="#FFFFFF"/><path d="m116.679688 300.59375c0-12.332031-10.035157-22.363281-22.367188-22.363281s-22.363281 10.03125-22.363281 22.363281 10.03125 22.367188 22.363281 22.367188c12.332031-.003907 22.367188-10.035157 22.367188-22.367188zm-22.367188 7.363281c-4.058594 0-7.363281-3.304687-7.363281-7.363281 0-4.0625 3.304687-7.367188 7.363281-7.367188 4.0625 0 7.367188 3.304688 7.367188 7.367188 0 4.058594-3.304688 7.363281-7.367188 7.363281zm0 0" data-original="#000000" class="active-path" data-old_color="#000000" fill="#FFFFFF"/><path d="m303.671875 437.355469c12.332031 0 22.363281-10.03125 22.363281-22.363281 0-12.332032-10.03125-22.363282-22.363281-22.363282s-22.363281 10.03125-22.363281 22.363282c0 12.332031 10.03125 22.363281 22.363281 22.363281zm0-29.726563c4.0625 0 7.363281 3.304688 7.363281 7.363282 0 4.0625-3.300781 7.363281-7.363281 7.363281-4.058594 0-7.363281-3.300781-7.363281-7.363281 0-4.058594 3.304687-7.363282 7.363281-7.363282zm0 0" data-original="#000000" class="active-path" data-old_color="#000000" fill="#FFFFFF"/><path d="m255.527344 352.6875c12.332031 0 22.367187-10.03125 22.367187-22.363281s-10.035156-22.363281-22.367187-22.363281c-12.332032 0-22.363282 10.03125-22.363282 22.363281s10.03125 22.363281 22.363282 22.363281zm0-29.730469c4.0625 0 7.367187 3.304688 7.367187 7.367188 0 4.058593-3.304687 7.363281-7.367187 7.363281-4.058594 0-7.363282-3.304688-7.363282-7.363281 0-4.0625 3.304688-7.367188 7.363282-7.367188zm0 0" data-original="#000000" class="active-path" data-old_color="#000000" fill="#FFFFFF"/><path d="m398.128906 164.625c-20.527344 0-37.226562 16.703125-37.226562 37.230469 0 20.527343 16.699218 37.230469 37.226562 37.230469s37.230469-16.703126 37.230469-37.230469c0-20.527344-16.703125-37.230469-37.230469-37.230469zm0 59.460938c-12.257812 0-22.226562-9.972657-22.226562-22.230469 0-12.257813 9.96875-22.230469 22.226562-22.230469 12.257813 0 22.230469 9.972656 22.230469 22.230469 0 12.257812-9.972656 22.230469-22.230469 22.230469zm0 0" data-original="#000000" class="active-path" data-old_color="#000000" fill="#FFFFFF"/><path d="m511.015625 239.636719c-5.050781-79.984375-47.402344-152.574219-113.582031-196.730469-4.96875-3.3125-11.128906-4.484375-16.984375-3.257812-1.851563-5.679688-5.925781-10.441407-11.269531-13.089844-35.503907-17.625-73.742188-26.558594-113.652344-26.558594-39.90625 0-78.144532 8.933594-113.652344 26.558594-5.339844 2.652344-9.414062 7.410156-11.265625 13.089844-5.855469-1.226563-12.019531-.054688-16.988281 3.257812-66.117188 44.117188-108.523438 116.679688-113.5781252 196.730469-.3749998 5.972656 1.6992192 11.902343 5.6914062 16.363281-3.996094 4.460938-6.066406 10.390625-5.6914062 16.363281 5.0507812 79.984375 47.4023432 152.574219 113.5820312 196.730469 4.789062 3.195312 10.890625 4.535156 16.984375 3.257812 1.851563 5.679688 5.925781 10.441407 11.269531 13.09375 35.503906 17.621094 73.742188 26.554688 113.648438 26.554688 39.910156 0 78.148437-8.933594 113.652344-26.558594 11.574218-5.742187 15.839843-20.160156 9.378906-31.351562l-110.039063-190.589844h80.507813v42.5625c0 13.800781 10.878906 26.03125 26.507812 26.03125 14.71875 0 26.695313-11.933594 26.695313-26.601562v-6.878907c0-2.425781 1.972656-4.398437 4.398437-4.398437 2.425782 0 4.398438 1.972656 4.398438 4.398437v53.457031c0 12.171876 9.902344 22.070313 22.074218 22.070313 12.167969 0 22.070313-9.898437 22.070313-22.070313v-88.570312h33.375c12.960937 0 23.28125-10.953125 22.46875-23.863281zm-386.476563 172.480469c-8.359374-7.023438-14.003906-18.105469-22.0625-27.699219-8.046874-9.578125-17.976562-17.03125-23.464843-26.515625-5.429688-9.378906-6.964844-21.714844-11.273438-33.554688-4.25-11.671875-11.023437-22.042968-12.929687-32.945312-1.480469-8.441406.003906-17.851563.660156-27.902344h187.070312l-93.554687 162.035156c-9-4.4375-17.808594-7.84375-24.445313-13.417968zm-69.730468-191.519532c1.90625-10.902344 8.679687-21.273437 12.929687-32.945312 4.3125-11.851563 5.84375-24.171875 11.273438-33.554688 5.484375-9.484375 15.421875-16.941406 23.464843-26.515625 8.066407-9.609375 13.699219-20.671875 22.0625-27.699219 6.636719-5.574218 15.449219-8.984374 24.449219-13.421874l39.464844 68.359374c2.070313 3.585938 6.660156 4.816407 10.246094 2.746094 3.585937-2.070312 4.816406-6.660156 2.746093-10.246094l-39.476562-68.375c8.289062-5.570312 15.613281-11.5 23.84375-14.496093 10.128906-3.6875 22.539062-3.050781 35.003906-5.230469 12.1875-2.136719 23.5625-7.003906 34.710938-7.003906 11.152344 0 22.527344 4.867187 34.714844 7.003906 12.464843 2.179688 24.878906 1.542969 35.003906 5.230469 8.226562 2.996093 15.546875 8.921875 23.84375 14.496093l-93.5625 162.054688-36.582032-63.367188c-2.074218-3.585937-6.660156-4.816406-10.246093-2.746093-3.585938 2.074219-4.816407 6.660156-2.746094 10.246093l36.585937 63.367188h-187.066406c-.660156-10.050781-2.144531-19.460938-.664062-27.902344zm93.738281-180.605468c33.414063-16.582032 69.410156-24.992188 106.980469-24.992188 37.574218 0 73.570312 8.410156 106.984375 24.992188 3.8125 1.890624 5.214843 6.679687 3.054687 10.417968l-8.957031 15.511719c-8.257813-5.621094-16.265625-11.9375-26.234375-15.566406-12.492188-4.546875-25.765625-3.847657-37.546875-5.914063-11.421875-1.996094-23.644531-7.226562-37.300781-7.226562-13.652344 0-25.878906 5.230468-37.296875 7.226562-11.777344 2.066406-25.054688 1.363282-37.550781 5.914063-9.964844 3.628906-17.953126 9.929687-26.230469 15.566406-.066407-.113281-8.953125-15.503906-8.953125-15.503906-.003906-.003907-.003906-.007813-.003906-.007813-2.15625-3.734375-.761719-8.523437 3.054687-10.417968zm-133.53125 200.585937c4.695313-74.421875 44.671875-143.652344 106.933594-185.195313 3.542969-2.363281 8.402343-1.199218 10.566406 2.550782l8.953125 15.507812c-9.015625 4.378906-18.507812 8.179688-26.578125 14.957032-10.285156 8.640624-16.304687 20.496093-23.902344 29.539062-7.574219 9.015625-18.214843 16.988281-24.960937 28.648438-6.6875 11.558593-8.3125 24.746093-12.382813 35.933593-3.996093 10.976563-11.269531 22.109375-13.613281 35.492188-1.800781 10.285156-.316406 20.429687.402344 30.488281h-17.925782c-4.328124 0-7.765624-3.632812-7.492187-7.921875zm106.933594 216.035156c-62.261719-41.539062-102.238281-110.769531-106.933594-185.195312-.273437-4.285157 3.164063-7.917969 7.496094-7.917969h17.921875c-.71875 10.074219-2.203125 20.203125-.402344 30.488281 2.34375 13.382813 9.617188 24.519531 13.613281 35.492188 4.070313 11.183593 5.699219 24.375 12.382813 35.933593 6.746094 11.65625 17.390625 19.632813 24.964844 28.652344 7.597656 9.042969 13.617187 20.898438 23.902343 29.535156 8.0625 6.777344 17.550781 10.574219 26.574219 14.957032l-8.953125 15.503906c-2.152344 3.734375-7.003906 4.929688-10.566406 2.550781zm240.5625 15.394531c-33.414063 16.582032-69.410157 24.992188-106.984375 24.992188-37.574219 0-73.566406-8.410156-106.980469-24.992188-3.8125-1.894531-5.214844-6.679687-3.054687-10.417968l8.957031-15.511719c8.261719 5.625 16.265625 11.9375 26.230469 15.566406 3.886718 1.417969 8.195312-.585937 9.613281-4.484375 1.417969-3.890625-.589844-8.195312-4.480469-9.609375-8.226562-2.996093-15.550781-8.921875-23.84375-14.5l93.558594-162.050781 93.5625 162.050781c-8.296875 5.578125-15.617188 11.503907-23.84375 14.5-10.128906 3.6875-22.539063 3.046875-35.003906 5.230469-12.1875 2.132812-23.5625 7.003906-34.714844 7.003906-11.890625 0-23.566406-5.433594-37.550782-7.457031-4.101562-.589844-7.902343 2.253906-8.496093 6.351563-.589844 4.101562 2.253906 7.90625 6.351562 8.496093 12.925781 1.867188 25.25 7.609375 39.695313 7.609375 13.65625 0 25.875-5.226562 37.300781-7.226562 11.773437-2.0625 25.050781-1.363282 37.550781-5.914063 9.960938-3.625 17.957032-9.929687 26.230469-15.566406l8.957031 15.511719c2.15625 3.734375.761719 8.523437-3.054687 10.417968zm85.160156-223.507812c-4.140625 0-7.5 3.359375-7.5 7.5v96.070312c0 3.898438-3.171875 7.070313-7.070313 7.070313-3.898437 0-7.070312-3.171875-7.070312-7.070313v-53.457031c0-10.699219-8.703125-19.398437-19.402344-19.398437-10.695312 0-19.398437 8.699218-19.398437 19.398437v6.878907c0 5.980468-4.664063 11.601562-12.171875 11.601562-6.097656 0-11.03125-4.933594-11.03125-11.03125l.003906-42.5625h56.714844c4.140625 0 7.5-3.359375 7.5-7.5s-3.359375-7.5-7.5-7.5h-152.226563l93.550781-162.035156c8.988282 4.429687 17.808594 7.839844 24.449219 13.417968 8.363281 7.023438 14 18.101563 22.0625 27.699219 8.046875 9.578125 17.976563 17.027344 23.464844 26.515625 5.429687 9.378906 6.960937 21.714844 11.273437 33.554688 4.25 11.671875 11.019532 22.042968 12.929688 32.945312 1.480469 8.441406-.003906 17.851563-.664062 27.902344zm40.875 0h-17.921875c.71875-10.074219 2.203125-20.203125.402344-30.488281-2.34375-13.382813-9.617188-24.519531-13.613282-35.492188-4.066406-11.179687-5.699218-24.378906-12.382812-35.933593-6.746094-11.660157-17.394531-19.640626-24.964844-28.652344-7.589844-9.039063-13.617187-20.898438-23.898437-29.535156-8.066407-6.773438-17.546875-10.570313-26.578125-14.957032l8.953125-15.507812c2.164062-3.75 7.027343-4.914063 10.566406-2.550782 62.261719 41.542969 102.238281 110.773438 106.933594 185.195313.273437 4.296875-3.171875 7.921875-7.496094 7.921875zm0 0" data-original="#000000" class="active-path" data-old_color="#000000" fill="#FFFFFF"/></g> </svg>
