<?xml version="1.0"?>
<svg xmlns="http://www.w3.org/2000/svg" xmlns:xlink="http://www.w3.org/1999/xlink" version="1.1" id="Capa_1" x="0px" y="0px" viewBox="0 0 512.002 512.002" style="enable-background:new 0 0 512.002 512.002;" xml:space="preserve" width="512px" height="512px" class=""><g><g>
	<g>
		<path d="M511.116,227.592c-3.139-28.271-10.876-55.585-22.996-81.183c-12.542-26.487-29.503-50.52-50.412-71.429    C389.355,26.629,325.068,0,256.688,0c-68.38,0-132.667,26.629-181.019,74.98C27.317,123.333,0.688,187.62,0.688,256    s26.629,132.667,74.981,181.02c44.826,44.825,104.347,71.33,167.599,74.631c4.499,0.234,8.982,0.351,13.463,0.351    c58.053-0.002,114.3-19.604,159.663-55.897c11.228-8.983,15.216-24.541,9.698-37.834c-1.587-3.826-5.979-5.643-9.802-4.052    c-3.826,1.588-5.64,5.977-4.052,9.802c2.972,7.16,0.827,15.537-5.216,20.371c-95.888,76.719-233.78,68.99-320.748-17.979    C40.757,380.894,15.688,320.373,15.688,256S40.757,131.106,86.276,85.588C131.794,40.068,192.315,15,256.688,15    S381.582,40.068,427.1,85.588c39.119,39.117,63.016,88.794,69.107,143.66c0.826,7.443-3.251,14.552-10.146,17.688    c-3.771,1.714-5.438,6.161-3.723,9.932c1.714,3.77,6.159,5.438,9.932,3.723C505.088,254.762,512.661,241.501,511.116,227.592z" data-original="#000000" class="active-path" data-old_color="#000000" fill="#FFFFFF"/>
	</g>
</g><g>
	<g>
		<path d="M471.495,233.205c-4.594-43.58-22.184-84.283-50.87-117.709c-3.942-4.593-9.653-7.389-15.714-7.718    c-0.329-6.062-3.126-11.772-7.718-15.714c-35.082-30.11-77.887-47.892-123.785-51.422c-6.091-0.474-12.165,1.599-16.719,5.674    c-4.552-4.075-10.624-6.15-16.719-5.674c-45.898,3.53-88.702,21.312-123.785,51.422c-4.593,3.942-7.389,9.653-7.719,15.714    c-6.061,0.33-11.772,3.125-15.714,7.718c-30.11,35.084-47.892,77.888-51.423,123.785c-0.469,6.097,1.6,12.166,5.676,16.719    c-4.076,4.553-6.145,10.622-5.676,16.719c3.531,45.897,21.313,88.701,51.423,123.785c3.942,4.593,9.652,7.389,15.714,7.718    c0.329,6.062,3.126,11.772,7.719,15.714c35.084,30.11,77.888,47.892,123.785,51.422c0.57,0.044,1.14,0.066,1.708,0.066    c5.513-0.001,10.883-2.056,15.01-5.751c4.128,3.697,9.496,5.751,15.009,5.751c0.569,0,1.14-0.022,1.71-0.066    c43.638-3.356,84.759-19.735,118.918-47.365c6.045-4.892,9.747-12.153,10.156-19.924c0.409-7.778-2.515-15.397-8.021-20.904    L274.796,263.5H444.13c7.796,0,15.259-3.324,20.476-9.12C469.794,248.616,472.305,240.898,471.495,233.205z M56.285,240.432    c3.285-42.695,19.831-82.52,47.85-115.166c1.328-1.548,3.197-2.443,5.262-2.521c2.125-0.071,4.133,0.704,5.64,2.21L238.581,248.5    H63.771c-2.116,0-4.073-0.855-5.512-2.409C56.824,244.542,56.123,242.532,56.285,240.432z M115.036,387.045    c-1.507,1.508-3.517,2.304-5.64,2.211c-2.065-0.078-3.933-0.974-5.261-2.522c-28.019-32.646-44.565-72.471-47.85-115.166    c-0.162-2.101,0.539-4.11,1.974-5.659c1.439-1.554,3.396-2.409,5.512-2.409h174.81L115.036,387.045z M249.188,448.918    c0,2.115-0.855,4.072-2.409,5.512c-1.549,1.434-3.559,2.123-5.659,1.974c-42.695-3.284-82.519-19.83-115.167-47.85    c-1.547-1.328-2.443-3.197-2.521-5.263c-0.081-2.13,0.704-4.132,2.211-5.639l123.545-123.545V448.918z M249.189,237.893    L125.642,114.347c-1.506-1.506-2.291-3.508-2.21-5.638c0.079-2.065,0.974-3.935,2.522-5.263    c32.646-28.02,72.47-44.565,115.166-47.85c2.099-0.152,4.11,0.539,5.66,1.974c1.553,1.438,2.409,3.396,2.409,5.512V237.893z     M264.188,100.255c3.536,7.801,11.392,13.245,20.5,13.245c12.406,0,22.5-10.094,22.5-22.5s-10.094-22.5-22.5-22.5    c-9.108,0-16.964,5.443-20.5,13.245V63.082c0-2.115,0.856-4.073,2.409-5.512c1.549-1.435,3.561-2.131,5.659-1.974    c42.696,3.284,82.521,19.83,115.166,47.85c1.548,1.328,2.443,3.197,2.521,5.263c0.081,2.129-0.704,4.132-2.211,5.638    L264.188,237.893V100.255z M277.188,91c0-4.136,3.364-7.5,7.5-7.5s7.5,3.364,7.5,7.5s-3.364,7.5-7.5,7.5    S277.188,95.136,277.188,91z M383.854,393.772c2.541,2.541,3.836,5.918,3.648,9.509c-0.188,3.583-1.826,6.797-4.611,9.05    c-31.784,25.709-70.041,40.949-110.635,44.072c-2.096,0.154-4.108-0.539-5.658-1.974c-1.554-1.438-2.409-3.396-2.409-5.512    V274.106L383.854,393.772z M453.457,244.345c-2.412,2.68-5.725,4.155-9.327,4.155H274.795l123.544-123.546    c1.508-1.506,3.504-2.288,5.641-2.21c2.065,0.078,3.934,0.974,5.262,2.521c26.694,31.104,43.063,68.973,47.334,109.512    C456.948,238.3,455.84,241.697,453.457,244.345z" data-original="#000000" class="active-path" data-old_color="#000000" fill="#FFFFFF"/>
	</g>
</g><g>
	<g>
		<path d="M211.688,68.5c-17.92,0-32.5,14.579-32.5,32.5s14.58,32.5,32.5,32.5s32.5-14.579,32.5-32.5S229.608,68.5,211.688,68.5z     M211.688,118.5c-9.649,0-17.5-7.851-17.5-17.5s7.851-17.5,17.5-17.5s17.5,7.851,17.5,17.5S221.337,118.5,211.688,118.5z" data-original="#000000" class="active-path" data-old_color="#000000" fill="#FFFFFF"/>
	</g>
</g><g>
	<g>
		<path d="M317.669,138.019c-6.139-6.138-14.3-9.519-22.981-9.519c-8.681,0-16.843,3.381-22.981,9.519    c-2.929,2.93-2.929,7.678,0,10.607c2.93,2.928,7.678,2.928,10.607,0c6.822-6.824,17.926-6.824,24.748,0    c6.823,6.823,6.823,17.925,0,24.748c-6.822,6.824-17.926,6.824-24.748,0c-2.93-2.928-7.678-2.928-10.607,0    c-2.929,2.93-2.929,7.678,0,10.607c6.139,6.138,14.3,9.519,22.981,9.519c8.681,0,16.843-3.381,22.981-9.519    c6.138-6.139,9.519-14.3,9.519-22.981C327.188,152.319,323.807,144.157,317.669,138.019z" data-original="#000000" class="active-path" data-old_color="#000000" fill="#FFFFFF"/>
	</g>
</g><g>
	<g>
		<path d="M294.688,318.5c-4.143,0-7.5,3.357-7.5,7.5s3.357,7.5,7.5,7.5c9.649,0,17.5,7.851,17.5,17.5s-7.851,17.5-17.5,17.5    c-4.29,0-8.417-1.567-11.618-4.413c-3.097-2.752-7.838-2.472-10.589,0.624c-2.751,3.097-2.471,7.837,0.624,10.589    c5.95,5.288,13.615,8.2,21.583,8.2c17.921,0,32.5-14.579,32.5-32.5C327.188,333.079,312.609,318.5,294.688,318.5z" data-original="#000000" class="active-path" data-old_color="#000000" fill="#FFFFFF"/>
	</g>
</g><g>
	<g>
		<path d="M111.688,148.5c-17.92,0-32.5,14.579-32.5,32.5s14.58,32.5,32.5,32.5s32.5-14.579,32.5-32.5S129.608,148.5,111.688,148.5z     M111.688,198.5c-9.649,0-17.5-7.851-17.5-17.5s7.851-17.5,17.5-17.5s17.5,7.851,17.5,17.5S121.337,198.5,111.688,198.5z" data-original="#000000" class="active-path" data-old_color="#000000" fill="#FFFFFF"/>
	</g>
</g><g>
	<g>
		<path d="M191.688,368.5c-17.92,0-32.5,14.579-32.5,32.5c0,17.921,14.58,32.5,32.5,32.5s32.5-14.579,32.5-32.5    C224.188,383.079,209.609,368.5,191.688,368.5z M191.688,418.5c-9.649,0-17.5-7.851-17.5-17.5s7.851-17.5,17.5-17.5    s17.5,7.851,17.5,17.5S201.338,418.5,191.688,418.5z" data-original="#000000" class="active-path" data-old_color="#000000" fill="#FFFFFF"/>
	</g>
</g><g>
	<g>
		<path d="M196.688,213.5c-4.142,0-7.5,3.357-7.5,7.5c0,4.136-3.364,7.5-7.5,7.5s-7.5-3.364-7.5-7.5s3.364-7.5,7.5-7.5    c4.142,0,7.5-3.357,7.5-7.5s-3.358-7.5-7.5-7.5c-12.407,0-22.5,10.094-22.5,22.5s10.094,22.5,22.5,22.5    c12.407,0,22.5-10.094,22.5-22.5C204.188,216.857,200.83,213.5,196.688,213.5z" data-original="#000000" class="active-path" data-old_color="#000000" fill="#FFFFFF"/>
	</g>
</g><g>
	<g>
		<path d="M401.688,148.5c-12.406,0-22.5,10.094-22.5,22.5s10.094,22.5,22.5,22.5s22.5-10.094,22.5-22.5    S414.095,148.5,401.688,148.5z M401.688,178.5c-4.136,0-7.5-3.364-7.5-7.5s3.364-7.5,7.5-7.5s7.5,3.364,7.5,7.5    S405.824,178.5,401.688,178.5z" data-original="#000000" class="active-path" data-old_color="#000000" fill="#FFFFFF"/>
	</g>
</g><g>
	<g>
		<path d="M84.688,266.5c-12.407,0-22.5,10.094-22.5,22.5s10.093,22.5,22.5,22.5s22.5-10.094,22.5-22.5S97.095,266.5,84.688,266.5z     M84.688,296.5c-4.136,0-7.5-3.364-7.5-7.5s3.364-7.5,7.5-7.5s7.5,3.364,7.5,7.5S88.824,296.5,84.688,296.5z" data-original="#000000" class="active-path" data-old_color="#000000" fill="#FFFFFF"/>
	</g>
</g><g>
	<g>
		<path d="M221.688,318.5c-12.407,0-22.5,10.094-22.5,22.5s10.094,22.5,22.5,22.5c12.407,0,22.5-10.094,22.5-22.5    S234.095,318.5,221.688,318.5z M221.688,348.5c-4.136,0-7.5-3.364-7.5-7.5s3.365-7.5,7.5-7.5c4.136,0,7.5,3.364,7.5,7.5    S225.824,348.5,221.688,348.5z" data-original="#000000" class="active-path" data-old_color="#000000" fill="#FFFFFF"/>
	</g>
</g><g>
	<g>
		<path d="M304.688,388.5c-12.406,0-22.5,10.094-22.5,22.5s10.094,22.5,22.5,22.5s22.5-10.094,22.5-22.5    S317.095,388.5,304.688,388.5z M304.688,418.5c-4.136,0-7.5-3.364-7.5-7.5s3.364-7.5,7.5-7.5s7.5,3.364,7.5,7.5    S308.824,418.5,304.688,418.5z" data-original="#000000" class="active-path" data-old_color="#000000" fill="#FFFFFF"/>
	</g>
</g><g>
	<g>
		<path d="M121.688,318.5c-12.407,0-22.5,10.094-22.5,22.5s10.093,22.5,22.5,22.5s22.5-10.094,22.5-22.5    S134.095,318.5,121.688,318.5z M121.688,348.5c-4.136,0-7.5-3.364-7.5-7.5s3.364-7.5,7.5-7.5s7.5,3.364,7.5,7.5    S125.824,348.5,121.688,348.5z" data-original="#000000" class="active-path" data-old_color="#000000" fill="#FFFFFF"/>
	</g>
</g><g>
	<g>
		<path d="M161.688,266.5c-15.164,0-27.5,12.337-27.5,27.5c0,15.163,12.337,27.5,27.5,27.5c15.164,0,27.5-12.337,27.5-27.5    C189.188,278.837,176.852,266.5,161.688,266.5z M161.688,306.5c-6.893,0-12.5-5.607-12.5-12.5s5.608-12.5,12.5-12.5    c6.893,0,12.5,5.607,12.5,12.5S168.581,306.5,161.688,306.5z" data-original="#000000" class="active-path" data-old_color="#000000" fill="#FFFFFF"/>
	</g>
</g><g>
	<g>
		<path d="M341.688,188.5c-4.143,0-7.5,3.357-7.5,7.5s3.357,7.5,7.5,7.5c6.893,0,12.5,5.607,12.5,12.5s-5.607,12.5-12.5,12.5    s-12.5-5.607-12.5-12.5c0-4.143-3.357-7.5-7.5-7.5s-7.5,3.357-7.5,7.5c0,15.163,12.337,27.5,27.5,27.5    c15.163,0,27.5-12.337,27.5-27.5C369.188,200.837,356.851,188.5,341.688,188.5z" data-original="#000000" class="active-path" data-old_color="#000000" fill="#FFFFFF"/>
	</g>
</g><g>
	<g>
		<circle cx="212.641" cy="240.3" r="7.5" data-original="#000000" class="active-path" data-old_color="#000000" fill="#FFFFFF"/>
	</g>
</g><g>
	<g>
		<circle cx="152.641" cy="110.3" r="7.5" data-original="#000000" class="active-path" data-old_color="#000000" fill="#FFFFFF"/>
	</g>
</g><g>
	<g>
		<circle cx="121.641" cy="304.3" r="7.5" data-original="#000000" class="active-path" data-old_color="#000000" fill="#FFFFFF"/>
	</g>
</g><g>
	<g>
		<circle cx="235.641" cy="304.3" r="7.5" data-original="#000000" class="active-path" data-old_color="#000000" fill="#FFFFFF"/>
	</g>
</g><g>
	<g>
		<circle cx="305.641" cy="234.3" r="7.5" data-original="#000000" class="active-path" data-old_color="#000000" fill="#FFFFFF"/>
	</g>
</g><g>
	<g>
		<path d="M364.844,121.297l-31.005-32.002c-2.884-2.97-7.63-3.05-10.605-0.167c-2.975,2.883-3.05,7.631-0.168,10.606l31.004,32.002    c0.674,0.695,1.449,1.231,2.281,1.609c2.724,1.238,6.045,0.767,8.325-1.442C367.651,129.02,367.726,124.272,364.844,121.297z" data-original="#000000" class="active-path" data-old_color="#000000" fill="#FFFFFF"/>
	</g>
</g><g>
	<g>
		<path d="M207.855,143.5h-20c-4.142,0-7.5,3.357-7.5,7.5s3.358,7.5,7.5,7.5h20c4.142,0,7.5-3.357,7.5-7.5    S211.997,143.5,207.855,143.5z" data-original="#000000" class="active-path" data-old_color="#000000" fill="#FFFFFF"/>
	</g>
</g><g>
	<g>
		<path d="M130.229,218.625c-2.928-2.928-7.677-2.929-10.606,0.001l-14.142,14.143c-2.929,2.929-2.929,7.677,0,10.606    c1.464,1.464,3.384,2.196,5.303,2.196s3.839-0.732,5.303-2.197l14.142-14.143C133.158,226.302,133.158,221.554,130.229,218.625z" data-original="#000000" class="active-path" data-old_color="#000000" fill="#FFFFFF"/>
	</g>
</g><g>
	<g>
		<path d="M350.229,368.625c-2.929-2.928-7.678-2.929-10.606,0.001l-14.142,14.143c-2.929,2.928-2.929,7.676,0,10.606    c1.464,1.464,3.384,2.196,5.303,2.196s3.839-0.732,5.303-2.197l14.142-14.143C353.158,376.302,353.158,371.554,350.229,368.625z" data-original="#000000" class="active-path" data-old_color="#000000" fill="#FFFFFF"/>
	</g>
</g><g>
	<g>
		<path d="M420.229,222.769l-14.142-14.143c-2.929-2.929-7.678-2.93-10.606-0.001c-2.929,2.93-2.929,7.678,0,10.606l14.142,14.143    c1.464,1.465,3.384,2.197,5.303,2.197s3.839-0.732,5.303-2.196C423.158,230.445,423.158,225.697,420.229,222.769z" data-original="#000000" class="active-path" data-old_color="#000000" fill="#FFFFFF"/>
	</g>
</g><g>
	<g>
		<path d="M243.229,382.769l-14.142-14.143c-2.929-2.93-7.678-2.929-10.606-0.001c-2.929,2.93-2.929,7.678,0,10.606l14.142,14.143    c1.464,1.465,3.384,2.197,5.303,2.197s3.839-0.732,5.303-2.196C246.158,390.445,246.158,385.697,243.229,382.769z" data-original="#000000" class="active-path" data-old_color="#000000" fill="#FFFFFF"/>
	</g>
</g><g>
	<g>
		<path d="M240.229,192.769l-14.142-14.143c-2.928-2.929-7.677-2.93-10.606-0.001c-2.929,2.93-2.929,7.678,0,10.606l14.142,14.143    c1.464,1.465,3.384,2.197,5.303,2.197s3.839-0.732,5.303-2.196C243.158,200.445,243.158,195.697,240.229,192.769z" data-original="#000000" class="active-path" data-old_color="#000000" fill="#FFFFFF"/>
	</g>
</g></g> </svg>
