<?xml version="1.0"?>
<svg xmlns="http://www.w3.org/2000/svg" height="512px" viewBox="-1 0 511 512" width="512px" class=""><g><path d="m113.367188 469.644531 18.902343-32.734375c-11.460937-7.761718-22.269531-16.664062-32.273437-26.664062-37.601563-37.601563-59.773438-86.515625-63.363282-139.066406h-18.371093c-10.757813 0-19.070313 9.5-17.589844 20.15625 10.308594 74.371093 52.703125 138.621093 112.695313 178.308593zm0 0" data-original="#000000" class="active-path" data-old_color="#000000" fill="#FFFFFF"/><path d="m368.886719 484.9375-16.910157-29.296875-2.027343-3.515625c-29.433594 14.394531-61.980469 22.011719-95.707031 22.011719-33.726563 0-66.277344-7.617188-95.707032-22.011719l-18.902344 32.742188c34.5 17.347656 73.429688 27.132812 114.609376 27.132812 39.921874 0 79.246093-9.324219 114.644531-27.0625zm0 0" data-original="#000000" class="active-path" data-old_color="#000000" fill="#FFFFFF"/><path d="m254.242188 37.863281c33.722656 0 66.273437 7.617188 95.707031 22.011719l18.902343-32.738281c-34.5-17.351563-73.433593-27.136719-114.609374-27.136719-33.117188 0-65.828126 6.410156-96.222657 18.722656-9.957031 4.03125-14.003906 15.992188-8.628906 25.296875l9.179687 15.90625c29.648438-14.46875 62.421876-22.0625 95.671876-22.0625zm0 0" data-original="#000000" class="active-path" data-old_color="#000000" fill="#FFFFFF"/><path d="m471.847656 271.179688c-3.585937 52.550781-25.757812 101.464843-63.363281 139.066406-10.003906 10-20.8125 18.902344-32.269531 26.664062l2.050781 3.554688 16.894531 29.273437c67.132813-44.382812 109.8125-118.316406 114.617188-198.558593zm0 0" data-original="#000000" class="active-path" data-old_color="#000000" fill="#FFFFFF"/><path d="m395.113281 42.355469-18.898437 32.734375c11.460937 7.761718 22.269531 16.664062 32.269531 26.664062 37.605469 37.601563 59.777344 86.515625 63.363281 139.066406h37.929688c-4.867188-82.851562-49.316406-155.226562-114.664063-198.464843zm0 0" data-original="#000000" class="active-path" data-old_color="#000000" fill="#FFFFFF"/><path d="m254.242188 443.78125c28.761718 0 56.035156-6.511719 80.425781-18.121094l-80.425781-139.304687-80.429688 139.304687c24.394531 11.609375 51.664062 18.121094 80.429688 18.121094zm40.058593-41.390625c.367188 8.195313-7.238281 15.179687-15.175781 15.179687-8.507812 0-14.808594-6.957031-15.179688-15.179687-.367187-8.195313 7.242188-15.179687 15.179688-15.179687 8.507812 0 14.808594 6.957031 15.175781 15.179687zm-40.058593-61.003906c8.507812 0 14.808593 6.953125 15.175781 15.175781.367187 8.199219-7.238281 15.179688-15.175781 15.179688-8.511719 0-14.8125-6.957032-15.179688-15.179688-.367188-8.195312 7.238281-15.175781 15.179688-15.175781zm-24.882813 45.824219c8.507813 0 14.808594 6.957031 15.175781 15.179687.367188 8.195313-7.238281 15.179687-15.175781 15.179687-8.507813 0-14.808594-6.957031-15.179687-15.179687-.367188-8.195313 7.238281-15.179687 15.179687-15.179687zm0 0" data-original="#000000" class="active-path" data-old_color="#000000" fill="#FFFFFF"/><path d="m360.929688 101.5625-80.398438 139.257812h160.875c-4.636719-57.65625-35.429688-108.042968-80.476562-139.257812zm-19.597657 119.332031c-8.507812 0-14.808593-6.953125-15.175781-15.175781-.367188-8.199219 7.238281-15.179688 15.175781-15.179688 8.507813 0 14.808594 6.957032 15.179688 15.179688.367187 8.195312-7.238281 15.175781-15.179688 15.175781zm12.066407-59.640625c-.367188-8.195312 7.242187-15.175781 15.179687-15.175781 8.507813 0 14.808594 6.953125 15.175781 15.175781.371094 8.199219-7.238281 15.179688-15.175781 15.179688-8.511719 0-14.808594-6.953125-15.179687-15.179688zm55.238281 43.101563c.367187 8.195312-7.238281 15.175781-15.175781 15.175781-8.507813 0-14.808594-6.953125-15.179688-15.175781-.367188-8.199219 7.242188-15.179688 15.179688-15.179688 8.507812 0 14.808593 6.953125 15.175781 15.179688zm0 0" data-original="#000000" class="active-path" data-old_color="#000000" fill="#FFFFFF"/><path d="m441.40625 271.179688h-160.875l80.398438 139.257812c45.046874-31.214844 75.839843-81.601562 80.476562-139.257812zm-47.945312 21.289062c8.507812 0 14.808593 6.953125 15.175781 15.175781.367187 8.199219-7.238281 15.179688-15.175781 15.179688-8.507813 0-14.808594-6.953125-15.179688-15.179688-.367188-8.195312 7.242188-15.175781 15.179688-15.175781zm-52.128907 28.992188c-8.507812 0-14.808593-6.957032-15.175781-15.179688-.367188-8.195312 7.238281-15.175781 15.175781-15.175781 8.507813 0 14.808594 6.953125 15.179688 15.175781.367187 8.195312-7.238281 15.179688-15.179688 15.179688zm27.246094 44.460937c-8.507813 0-14.808594-6.953125-15.179687-15.175781-.367188-8.199219 7.242187-15.179688 15.179687-15.179688 8.507813 0 14.808594 6.953125 15.175781 15.179688.371094 8.195312-7.238281 15.175781-15.175781 15.175781zm0 0" data-original="#000000" class="active-path" data-old_color="#000000" fill="#FFFFFF"/><path d="m147.546875 410.441406 80.40625-139.261718h-160.882813c4.628907 57.660156 35.429688 108.046874 80.476563 139.261718zm19.605469-119.335937c8.507812 0 14.808594 6.953125 15.175781 15.175781.367187 8.199219-7.238281 15.179688-15.175781 15.179688-8.511719 0-14.8125-6.957032-15.179688-15.179688-.367187-8.195312 7.238282-15.175781 15.179688-15.175781zm-12.070313 59.640625c.367188 8.195312-7.238281 15.175781-15.175781 15.175781-8.507812 0-14.8125-6.953125-15.179688-15.175781-.367187-8.199219 7.238282-15.179688 15.179688-15.179688 8.507812 0 14.808594 6.953125 15.175781 15.179688zm-40.058593-58.277344c8.507812 0 14.808593 6.953125 15.175781 15.175781.367187 8.199219-7.238281 15.179688-15.175781 15.179688-8.511719 0-14.8125-6.953125-15.179688-15.179688-.367188-8.195312 7.238281-15.175781 15.179688-15.175781zm0 0" data-original="#000000" class="active-path" data-old_color="#000000" fill="#FFFFFF"/><path d="m334.667969 86.339844c-24.390625-11.609375-51.660157-18.117188-80.425781-18.117188-27.925782 0-55.449219 6.210938-80.457032 18.066406l80.457032 139.355469zm-55.542969 8.089844c8.507812 0 14.808594 6.957031 15.175781 15.179687.367188 8.195313-7.238281 15.179687-15.175781 15.179687-8.507812 0-14.808594-6.957031-15.179688-15.179687-.367187-8.195313 7.238282-15.179687 15.179688-15.179687zm-9.707031 61.007812c.367187 8.195312-7.238281 15.175781-15.175781 15.175781-8.511719 0-14.8125-6.953125-15.179688-15.175781-.367188-8.199219 7.238281-15.179688 15.179688-15.179688 8.507812 0 14.808593 6.953126 15.175781 15.179688zm-40.058594-61.007812c8.507813 0 14.808594 6.957031 15.175781 15.179687.367188 8.195313-7.238281 15.179687-15.175781 15.179687-8.507813 0-14.808594-6.957031-15.179687-15.179687-.367188-8.195313 7.238281-15.179687 15.179687-15.179687zm0 0" data-original="#000000" class="active-path" data-old_color="#000000" fill="#FFFFFF"/></g> </svg>
